<svg width="12" height="16" viewBox="0 0 12 16" fill="none" xmlns="http://www.w3.org/2000/svg">
<path d="M5.29251 5.69875C5.29576 5.693 5.29976 5.68775 5.30301 5.6825C5.29526 5.68 5.28776 5.67575 5.28001 5.673C5.28576 5.6815 5.28726 5.6905 5.29251 5.69875" fill="#EFB086"/>
<path d="M2.93201 6.8625C2.30676 6.952 0.392507 6.2655 0.239757 8.12C0.0975073 9.84475 1.99976 9.45225 2.72951 9.4805C3.13876 9.519 5.19151 9.60925 5.59926 9.7305C5.64426 9.75475 5.68876 9.7775 5.73101 9.8045C5.49451 10.2512 5.12701 10.665 4.83101 11.039C4.59226 11.261 4.41601 11.553 4.30076 11.9195C4.15793 12.2593 4.05962 12.6162 4.00826 12.9812C3.93176 13.5085 4.01451 14.1157 4.23376 14.6545C4.27976 14.7857 4.33101 14.9157 4.39326 15.043C4.52101 15.3067 4.75851 15.583 5.04326 15.8005C5.12901 15.8665 5.21551 15.9072 5.30751 15.925C5.50851 15.9642 5.74601 15.898 6.07976 15.7105C6.33876 15.5672 6.37976 15.3647 6.37376 14.965C6.37126 14.84 6.35401 14.7022 6.32001 14.5325C6.11851 13.5467 6.45376 12.6647 7.29001 11.9852C7.96351 11.4348 8.51201 11.0777 9.06801 10.8255C10.889 9.99975 11.7503 8.6425 11.6995 6.677C11.6885 6.19875 11.6918 5.7215 11.6958 5.24325L11.699 4.21975C11.7063 2.753 11.1548 1.33875 9.80876 0.67825C8.98101 0.27425 5.44151 0.4285 4.07276 0.131C3.55926 0.0189999 2.30251 -0.2615 2.12651 0.66775C1.90876 1.70275 3.28926 1.49575 3.63651 1.8525C3.14576 1.998 1.19026 1.05925 1.05051 2.7085C0.919757 4.25125 2.72401 4.0905 3.03526 4.28425C2.44901 4.21725 0.611257 3.974 0.530257 5.201C0.446007 6.48125 1.57101 6.7085 2.93326 6.86475" fill="#EFB086"/>
</svg>
