<svg width="16" height="16" viewBox="0 0 16 16" fill="none" xmlns="http://www.w3.org/2000/svg">
<path d="M14.755 1.69425C14.6282 1.55056 14.4921 1.41528 14.3478 1.28925C13.658 0.68625 12.7235 0.2655 11.5678 0.25H11.5433C11.4743 0.25 11.4045 0.254 11.336 0.258C10.618 0.2905 8.54575 1.1375 8.02875 2.80975C7.513 1.13725 5.44025 0.28975 4.722 0.258C4.65525 0.254 4.5845 0.25 4.51725 0.25H4.4905C3.33625 0.26525 2.40175 0.68625 1.713 1.28925C1.56902 1.41579 1.43293 1.55105 1.3055 1.69425C0.432001 2.693 0.0165011 4.1065 0.555501 5.3955C0.620751 5.57775 0.695251 5.76625 0.780001 5.95825C2.0495 8.8485 5.50125 12.8293 7.209 14.704C7.5755 15.1623 7.856 15.514 8.02325 15.7212V15.7445L8.02525 15.7425C8.02525 15.7463 8.02925 15.7482 8.031 15.7502V15.7353L8.0325 15.733L8.0345 15.7353V15.7502C8.039 15.7482 8.041 15.746 8.041 15.7425L8.043 15.7445V15.7212C8.21 15.514 8.49175 15.1625 8.85725 14.704C10.5643 12.8293 14.0148 8.8485 15.2838 5.95825C15.3652 5.77341 15.44 5.58571 15.508 5.3955C16.0458 4.10525 15.6338 2.69175 14.758 1.692" fill="#E03A4D"/>
</svg>
