<svg width="16" height="16" viewBox="0 0 16 16" fill="none" xmlns="http://www.w3.org/2000/svg">
<g clip-path="url(#clip0)">
<path d="M8.0125 16C12.4239 16 16 12.4183 16 8C16 3.58172 12.4239 0 8.0125 0C3.60113 0 0.0250015 3.58172 0.0250015 8C0.0250015 12.4183 3.60113 16 8.0125 16Z" fill="#FBBF67"/>
<path d="M10.98 10.4163L10.9168 10.3435C10.6535 10.107 10.2168 10.1205 9.9675 10.3652L8.11725 12.0488L6.2495 10.3435C5.98575 10.107 5.5495 10.1192 5.3 10.3652C5.3 10.3652 2.8445 13.3458 2.9885 13.477C3.23825 13.7008 3.6655 13.701 3.91625 13.475L5.78275 11.778L7.649 13.475C7.898 13.7005 8.333 13.7015 8.583 13.475L10.4503 11.778L12.316 13.474C12.443 13.5904 12.609 13.6547 12.7813 13.6543C12.9535 13.6543 13.1198 13.5903 13.2463 13.475C13.3893 13.3443 10.9788 10.4163 10.9788 10.4163" fill="#633D19"/>
<path d="M2.7 5.175C4.18625 5.2785 5.53375 4.6665 6.4675 3.50575C6.8725 3.00075 6.16225 2.2795 5.75325 2.789C4.9705 3.76275 3.95125 4.24775 2.701 4.16125C2.05 4.116 2.0545 5.13 2.701 5.175" fill="#633D19"/>
<path d="M13.325 5.175C11.8388 5.2785 10.491 4.6665 9.5575 3.50575C9.1525 3.00075 9.863 2.2795 10.2718 2.789C11.0545 3.76275 12.0738 4.24775 13.3243 4.16125C13.9748 4.116 13.9703 5.13 13.3243 5.175" fill="#633D19"/>
<path d="M7.3275 8.13375C6.558 6.8635 4.99725 6.08375 3.51775 6.03775C3.00625 6.022 3.00825 6.803 3.51775 6.819C4.2275 6.84075 4.968 7.07975 5.586 7.48175C5.556 7.53325 5.515 8.12625 5.53575 8.1745C4.80875 8.26125 4.0775 8.3235 3.3625 8.49125C2.86625 8.60825 3.07675 9.3615 3.5735 9.24625C4.73175 8.97325 5.9325 8.98175 7.091 8.70925C7.34 8.65025 7.456 8.34675 7.32775 8.135" fill="#633D19"/>
<path d="M8.9345 8.7075C10.0927 8.98025 11.294 8.97175 12.452 9.2445C12.9492 9.36125 13.16 8.60775 12.6632 8.4895C11.9482 8.32175 11.217 8.2595 10.4905 8.17275C10.5105 8.12475 10.4702 7.53175 10.4395 7.48C11.0582 7.078 11.7985 6.839 12.5082 6.81725C13.018 6.8015 13.0195 6.02025 12.5082 6.036C11.0285 6.082 9.46775 6.86175 8.6985 8.132C8.57 8.34425 8.6865 8.64775 8.935 8.70625" fill="#633D19"/>
</g>
<defs>
<clipPath id="clip0">
<rect width="16" height="16" fill="white"/>
</clipPath>
</defs>
</svg>
