<svg width="24" height="24" viewBox="0 0 24 24" fill="none" xmlns="http://www.w3.org/2000/svg">
<g clip-path="url(#clip0)">
<path d="M2.298 23.1225C2.21738 23.0126 2.45025 22.233 2.4975 22.1771C3.72413 20.7491 3.76913 16.1546 3.744 15.4999C3.6825 13.9886 4.4835 12.4601 5.15925 12.7905C5.81175 13.1093 6.32325 16.2517 6.44888 16.8806C6.759 18.4185 6.6375 20.2594 6.1395 21.7174C5.61375 23.2612 3.58163 24.828 2.298 23.1225Z" fill="#C2986B"/>
<path d="M21.7406 23.1225C21.8209 23.0126 21.5884 22.233 21.5408 22.1771C20.3141 20.7491 20.2695 16.1546 20.2946 15.4999C20.3558 13.9886 19.5548 12.4601 18.879 12.7905C18.2269 13.1093 17.7154 16.2517 17.5898 16.8806C17.2796 18.4185 17.4011 20.2594 17.8991 21.7174C18.4245 23.2612 20.4566 24.828 21.7406 23.1225Z" fill="#C2986B"/>
<path d="M0.907832 6.5001C1.71783 7.31048 3.62471 6.71498 5.17046 5.16886C6.71546 3.62386 7.31096 1.71773 6.50096 0.90698C5.69283 0.0996049 2.44571 -0.645145 0.899957 0.899855C-0.645042 2.44485 0.0997075 5.69273 0.907832 6.5001Z" fill="#FBB041"/>
<path d="M23.0325 6.50024C22.2229 7.31062 20.316 6.71512 18.7702 5.16899C17.2252 3.62399 16.6297 1.71787 17.4394 0.907117C18.2479 0.0997422 21.4946 -0.645008 23.0404 0.899992C24.5854 2.44499 23.8406 5.69287 23.0325 6.50024Z" fill="#FBB041"/>
<path d="M22.8034 12.4013C22.8034 18.3934 17.9471 23.2508 11.9546 23.2508C5.96212 23.2508 1.1055 18.3938 1.1055 12.4013C1.1055 6.41025 5.96175 2.23875 11.9543 2.23875C17.9468 2.23875 22.8034 6.40988 22.8034 12.4013Z" fill="#A7A8AC"/>
<path d="M20.0737 12.4875C20.0737 16.9729 16.4385 20.6085 11.9527 20.6085C7.467 20.6085 3.83175 16.9729 3.83175 12.4875C3.83175 8.00325 7.46737 4.88138 11.9527 4.88138C16.4381 4.88138 20.0737 8.00325 20.0737 12.4875Z" fill="#E7E6E6"/>
<path d="M12.958 13.1738C12.958 13.8323 12.4349 14.3648 11.7891 14.3648C11.1434 14.3648 10.6203 13.8323 10.6203 13.1738V7.5765C10.6203 6.91987 11.1434 6.38737 11.7891 6.38737C12.4353 6.38737 12.958 6.91987 12.958 7.5765V13.1738Z" fill="#25333A"/>
<path d="M11.8594 14.3663C11.1739 14.3663 10.62 14.0033 10.62 13.5559C10.62 13.1096 11.1739 12.747 11.8594 12.747H17.6933C18.3784 12.747 18.9338 13.1096 18.9338 13.5559C18.9338 14.0033 18.3788 14.3663 17.6933 14.3663H11.8594Z" fill="#25333A"/>
</g>
<defs>
<clipPath id="clip0">
<rect width="24" height="24" fill="white"/>
</clipPath>
</defs>
</svg>
