<svg width="12" height="16" viewBox="0 0 12 16" fill="none" xmlns="http://www.w3.org/2000/svg">
<path d="M6.41416 10.2453C6.41091 10.2511 6.40691 10.2561 6.40366 10.2616C6.41191 10.2643 6.41916 10.2683 6.42666 10.2711C6.42141 10.2628 6.41941 10.2541 6.41416 10.2453" fill="#EFB086"/>
<path d="M8.77941 9.07983C9.40491 8.99058 11.3209 9.67758 11.4737 7.82233C11.6162 6.09633 9.71116 6.48883 8.98141 6.46058C8.57166 6.42208 6.51766 6.33208 6.10941 6.21058C6.06433 6.18776 6.02013 6.16324 5.97691 6.13708C6.21366 5.68958 6.58141 5.27533 6.87791 4.90158C7.11666 4.67908 7.29366 4.38683 7.40891 4.01983C7.55162 3.67962 7.64984 3.32243 7.70116 2.95708C7.77791 2.42933 7.69491 1.82158 7.47616 1.28158C7.43035 1.14906 7.37701 1.01927 7.31641 0.892832C7.18791 0.628832 6.95065 0.352332 6.66515 0.135332C6.57915 0.0695819 6.4929 0.028332 6.40115 0.010832C6.1999 -0.0284181 5.96166 0.0380819 5.62816 0.225332C5.36816 0.369332 5.32741 0.571832 5.33366 0.972082C5.33566 1.09708 5.35366 1.23508 5.38766 1.40483C5.58941 2.39233 5.25291 3.27458 4.41641 3.95508C3.74241 4.50583 3.19341 4.86333 2.63641 5.11558C0.813155 5.94258 -0.0490946 7.30108 0.00215541 9.26858C0.0131554 9.74758 0.00940553 10.2253 0.00540553 10.7041L0.00215541 11.7288C-0.00509459 13.1966 0.546906 14.6128 1.89416 15.2733C2.72266 15.6778 6.26641 15.5233 7.63616 15.8213C8.15066 15.9333 9.40841 16.2146 9.58491 15.2843C9.80266 14.2478 8.42041 14.4558 8.07491 14.0981C8.56616 13.9531 10.5242 14.8921 10.6639 13.2411C10.7949 11.6971 8.98891 11.8578 8.67716 11.6641C9.26391 11.7311 11.1029 11.9746 11.1847 10.7463C11.2704 9.46408 10.1437 9.23633 8.78066 9.08058" fill="#EFB086"/>
</svg>
